<?xml version="1.0" encoding="utf-8"?>
<!-- Generator: Adobe Illustrator 26.0.1, SVG Export Plug-In . SVG Version: 6.00 Build 0)  -->
<svg version="1.1" id="Vrstva_1" xmlns="http://www.w3.org/2000/svg" xmlns:xlink="http://www.w3.org/1999/xlink" x="0px" y="0px"
	 viewBox="0 0 512.2 161.9" style="enable-background:new 0 0 512.2 161.9;" xml:space="preserve">
<style type="text/css">
	.st0{fill:#735E36;}
	.st1{enable-background:new    ;}
	.st2{fill:#28283E;}
	.st3{fill:#CE9C04;}
</style>
<g id="Vrstva_2_00000143588086654555239570000017006200178702637707_">
	<g id="Vrstva_1-2">
		<path class="st0" d="M44.1,54.9H22.5L0,107h17l3.3-7.6h26l3.3,7.6h17L44.1,54.9z M25.3,87.8l8-18.5l8,18.5H25.3z"/>
		<polygon class="st0" points="61.4,86.1 61.4,39.6 78.4,39.6 78.4,65.9 		"/>
		<polygon class="st0" points="127.3,122.3 105.4,122.3 95.2,110.2 81.3,93.7 70.2,107 66.2,107 56.8,99.1 71.3,81.8 75.3,77 
			94,54.8 114.1,54.8 92.3,80.7 		"/>
		<polygon class="st0" points="133.6,91.4 160.8,91.4 160.8,107.2 120.8,107.2 107.5,91.4 125.1,70.5 107.1,70.5 120.3,54.7 
			160.6,54.7 160.6,54.8 164.4,54.8 		"/>
		<g class="st1">
			<path class="st2" d="M213.4,76.2h-4c-0.4,0-0.8-0.1-1.1-0.3s-0.5-0.5-0.6-0.8l-1.7-4.7h-9.8l-1.7,4.7c-0.1,0.3-0.3,0.5-0.6,0.8
				s-0.6,0.3-1.1,0.3h-4l9.6-24.7h5.2L213.4,76.2z M204.8,66.9l-2.7-7.5c-0.2-0.4-0.3-0.9-0.5-1.4c-0.2-0.5-0.3-1.1-0.5-1.7
				c-0.2,0.6-0.3,1.2-0.5,1.8c-0.2,0.5-0.3,1-0.5,1.4l-2.7,7.5H204.8z"/>
		</g>
		<g class="st1">
			<path class="st2" d="M231.7,50.9v25.3h-2.9c-0.6,0-1-0.3-1.2-0.8l-0.4-1.5c-0.4,0.4-0.7,0.7-1.1,1.1c-0.4,0.3-0.8,0.6-1.3,0.8
				c-0.5,0.2-0.9,0.4-1.5,0.5c-0.5,0.1-1.1,0.2-1.7,0.2c-0.9,0-1.8-0.2-2.6-0.6s-1.5-1-2-1.7c-0.6-0.8-1-1.7-1.3-2.8
				c-0.3-1.1-0.5-2.4-0.5-3.8c0-1.3,0.2-2.5,0.5-3.6s0.9-2.1,1.5-2.9s1.5-1.5,2.4-1.9c0.9-0.5,2-0.7,3.1-0.7c1,0,1.8,0.1,2.4,0.4
				c0.7,0.3,1.2,0.7,1.8,1.2v-9.1H231.7z M227,63.3c-0.4-0.5-0.9-0.9-1.4-1.1c-0.5-0.2-1.1-0.3-1.6-0.3c-0.6,0-1.1,0.1-1.5,0.3
				c-0.5,0.2-0.9,0.6-1.2,1s-0.6,1-0.8,1.8s-0.3,1.6-0.3,2.5c0,1,0.1,1.8,0.2,2.5c0.1,0.7,0.4,1.2,0.6,1.6c0.3,0.4,0.6,0.7,1,0.9
				c0.4,0.2,0.8,0.3,1.3,0.3c0.8,0,1.5-0.2,2.1-0.5c0.6-0.3,1.1-0.8,1.6-1.4V63.3z"/>
		</g>
		<g class="st1">
			<path class="st2" d="M253.3,58.7l-6.9,17.5h-4.2l-6.9-17.5h3.9c0.3,0,0.6,0.1,0.9,0.2c0.2,0.2,0.4,0.4,0.5,0.6l2.9,8.7
				c0.2,0.6,0.4,1.2,0.5,1.7c0.1,0.6,0.3,1.1,0.4,1.7c0.1-0.6,0.3-1.1,0.4-1.7c0.2-0.6,0.3-1.1,0.5-1.7l3-8.7
				c0.1-0.2,0.2-0.5,0.5-0.6c0.2-0.2,0.5-0.2,0.8-0.2H253.3z"/>
		</g>
		<g class="st1">
			<path class="st2" d="M264.2,58.5c1.3,0,2.5,0.2,3.6,0.6c1.1,0.4,2,1,2.8,1.8c0.8,0.8,1.4,1.7,1.8,2.8c0.4,1.1,0.6,2.4,0.6,3.8
				c0,1.4-0.2,2.6-0.6,3.8c-0.4,1.1-1,2.1-1.8,2.8c-0.8,0.8-1.7,1.4-2.8,1.8c-1.1,0.4-2.3,0.6-3.6,0.6c-1.3,0-2.5-0.2-3.6-0.6
				c-1.1-0.4-2-1-2.8-1.8c-0.8-0.8-1.4-1.7-1.8-2.8c-0.4-1.1-0.6-2.4-0.6-3.8c0-1.4,0.2-2.6,0.6-3.8c0.4-1.1,1-2.1,1.8-2.8
				c0.8-0.8,1.7-1.4,2.8-1.8C261.7,58.7,262.9,58.5,264.2,58.5z M264.2,73c1.3,0,2.3-0.5,3-1.4c0.6-0.9,1-2.3,1-4.1
				c0-1.8-0.3-3.2-1-4.1c-0.6-0.9-1.6-1.4-3-1.4c-1.4,0-2.4,0.5-3,1.4c-0.6,0.9-1,2.3-1,4.1c0,1.8,0.3,3.2,1,4.1
				C261.8,72.5,262.8,73,264.2,73z"/>
			<path class="st2" d="M282.3,50.9v14.4h0.8c0.3,0,0.5,0,0.7-0.1s0.3-0.2,0.5-0.5l3.9-5.2c0.2-0.3,0.4-0.5,0.7-0.6
				c0.2-0.1,0.6-0.2,0.9-0.2h4.3l-5,6.4c-0.4,0.5-0.9,1-1.4,1.3c0.3,0.2,0.5,0.4,0.7,0.6c0.2,0.2,0.4,0.5,0.6,0.8l5.4,8.4h-4.2
				c-0.4,0-0.7-0.1-0.9-0.2s-0.5-0.3-0.6-0.6l-3.9-6.4c-0.2-0.3-0.3-0.4-0.5-0.5s-0.4-0.1-0.8-0.1h-1v7.9h-4.7V50.9H282.3z"/>
		</g>
		<g class="st1">
			<path class="st2" d="M297.2,61.2c1-0.9,2.2-1.6,3.4-2.1c1.2-0.5,2.6-0.7,4-0.7c1,0,2,0.2,2.8,0.5c0.8,0.3,1.5,0.8,2.1,1.4
				s1,1.3,1.3,2.2c0.3,0.8,0.5,1.8,0.5,2.8v11h-2.1c-0.4,0-0.8-0.1-1-0.2c-0.2-0.1-0.4-0.4-0.6-0.8l-0.4-1.1c-0.4,0.4-0.9,0.7-1.3,1
				c-0.4,0.3-0.8,0.5-1.3,0.7c-0.4,0.2-0.9,0.3-1.4,0.5c-0.5,0.1-1.1,0.2-1.7,0.2c-0.8,0-1.5-0.1-2.1-0.3s-1.2-0.5-1.6-0.9
				s-0.8-0.9-1.1-1.5c-0.2-0.6-0.4-1.3-0.4-2.1c0-0.6,0.2-1.3,0.5-1.9c0.3-0.6,0.9-1.2,1.7-1.8c0.8-0.5,1.9-1,3.2-1.3s3-0.5,5-0.6
				v-0.9c0-1.1-0.2-1.9-0.7-2.4s-1.1-0.8-2-0.8c-0.6,0-1.2,0.1-1.6,0.2s-0.8,0.3-1.1,0.5c-0.3,0.2-0.6,0.3-0.9,0.5
				c-0.3,0.2-0.6,0.2-1,0.2c-0.3,0-0.6-0.1-0.8-0.2c-0.2-0.2-0.4-0.4-0.6-0.6L297.2,61.2z M306.8,68.9c-1.1,0.1-2.1,0.2-2.9,0.3
				s-1.4,0.3-1.8,0.6s-0.8,0.5-1,0.8c-0.2,0.3-0.3,0.6-0.3,0.9c0,0.7,0.2,1.2,0.6,1.4c0.4,0.3,0.9,0.4,1.6,0.4c0.8,0,1.5-0.1,2-0.4
				c0.6-0.3,1.1-0.7,1.7-1.3V68.9z M310.5,51.3l-4.3,4.5c-0.2,0.2-0.5,0.4-0.7,0.5s-0.5,0.1-0.9,0.1h-2.8l2.4-4.1
				c0.2-0.3,0.4-0.6,0.6-0.7c0.2-0.2,0.6-0.2,1.1-0.2H310.5z"/>
		</g>
		<g class="st1">
			<path class="st2" d="M322.4,76.5c-0.8,0-1.5-0.1-2.1-0.3c-0.6-0.2-1.1-0.6-1.5-1c-0.4-0.4-0.7-1-1-1.6c-0.2-0.6-0.3-1.3-0.3-2.1
				v-9.5h-1.6c-0.2,0-0.5-0.1-0.6-0.2c-0.2-0.2-0.3-0.4-0.3-0.7v-1.8l2.8-0.5l1-4.5c0.1-0.5,0.5-0.8,1-0.8h2.4v5.3h4.5v3.3h-4.5v9.1
				c0,0.5,0.1,0.9,0.3,1.2c0.2,0.3,0.6,0.4,1,0.4c0.2,0,0.4,0,0.6-0.1c0.2-0.1,0.3-0.1,0.4-0.2c0.1-0.1,0.2-0.1,0.3-0.2
				c0.1-0.1,0.2-0.1,0.3-0.1c0.1,0,0.2,0,0.3,0.1c0.1,0.1,0.2,0.2,0.3,0.3l1.4,2.2c-0.6,0.5-1.4,0.9-2.2,1.2
				C324.1,76.4,323.2,76.5,322.4,76.5z"/>
			<path class="st2" d="M335.2,60.8c0.4-0.3,0.7-0.7,1.1-0.9c0.4-0.3,0.8-0.5,1.2-0.7c0.4-0.2,0.9-0.4,1.4-0.5
				c0.5-0.1,1-0.2,1.6-0.2c1,0,1.8,0.2,2.5,0.5c0.7,0.3,1.4,0.8,1.9,1.4c0.5,0.6,0.9,1.3,1.1,2.1c0.3,0.8,0.4,1.7,0.4,2.7v11.1h-4.7
				V65.1c0-1-0.2-1.7-0.7-2.3s-1.1-0.8-2-0.8c-0.7,0-1.3,0.1-1.9,0.4c-0.6,0.3-1.1,0.7-1.6,1.2v12.6h-4.7V58.7h2.9
				c0.6,0,1,0.3,1.2,0.8L335.2,60.8z"/>
			<path class="st2" d="M356.7,58.7v17.5H352V58.7H356.7z M360.7,51.3l-4.3,4.5c-0.2,0.2-0.5,0.4-0.7,0.5c-0.2,0.1-0.5,0.1-0.9,0.1
				h-2.8l2.4-4.1c0.2-0.3,0.4-0.6,0.6-0.7c0.2-0.2,0.6-0.2,1.1-0.2H360.7z"/>
			<path class="st2" d="M376.9,50.9v14.4h0.8c0.3,0,0.5,0,0.7-0.1s0.3-0.2,0.5-0.5l3.9-5.2c0.2-0.3,0.4-0.5,0.7-0.6
				c0.2-0.1,0.6-0.2,0.9-0.2h4.3l-5,6.4c-0.4,0.5-0.9,1-1.4,1.3c0.3,0.2,0.5,0.4,0.7,0.6s0.4,0.5,0.6,0.8l5.4,8.4h-4.2
				c-0.4,0-0.7-0.1-0.9-0.2s-0.5-0.3-0.6-0.6l-3.9-6.4c-0.2-0.3-0.3-0.4-0.5-0.5s-0.4-0.1-0.8-0.1h-1v7.9h-4.7V50.9H376.9z"/>
			<path class="st2" d="M392,61.2c1-0.9,2.2-1.6,3.4-2.1s2.6-0.7,4-0.7c1,0,2,0.2,2.8,0.5c0.8,0.3,1.5,0.8,2.1,1.4s1,1.3,1.3,2.2
				c0.3,0.8,0.5,1.8,0.5,2.8v11H404c-0.4,0-0.8-0.1-1-0.2c-0.2-0.1-0.4-0.4-0.6-0.8l-0.4-1.1c-0.4,0.4-0.9,0.7-1.3,1
				c-0.4,0.3-0.8,0.5-1.3,0.7c-0.4,0.2-0.9,0.3-1.4,0.5c-0.5,0.1-1.1,0.2-1.7,0.2c-0.8,0-1.5-0.1-2.1-0.3s-1.2-0.5-1.6-0.9
				s-0.8-0.9-1.1-1.5c-0.2-0.6-0.4-1.3-0.4-2.1c0-0.6,0.2-1.3,0.5-1.9c0.3-0.6,0.9-1.2,1.7-1.8c0.8-0.5,1.9-1,3.2-1.3
				c1.3-0.3,3-0.5,5-0.6v-0.9c0-1.1-0.2-1.9-0.7-2.4c-0.5-0.5-1.1-0.8-2-0.8c-0.6,0-1.2,0.1-1.6,0.2s-0.8,0.3-1.1,0.5
				s-0.6,0.3-0.9,0.5c-0.3,0.2-0.6,0.2-1,0.2c-0.3,0-0.6-0.1-0.8-0.2c-0.2-0.2-0.4-0.4-0.6-0.6L392,61.2z M401.6,68.9
				c-1.1,0.1-2.1,0.2-2.9,0.3c-0.8,0.1-1.4,0.3-1.8,0.6c-0.4,0.2-0.8,0.5-1,0.8c-0.2,0.3-0.3,0.6-0.3,0.9c0,0.7,0.2,1.2,0.6,1.4
				c0.4,0.3,0.9,0.4,1.6,0.4c0.8,0,1.5-0.1,2-0.4c0.6-0.3,1.1-0.7,1.7-1.3V68.9z"/>
			<path class="st2" d="M415.9,60.8c0.4-0.3,0.7-0.7,1.1-0.9c0.4-0.3,0.8-0.5,1.2-0.7s0.9-0.4,1.4-0.5s1-0.2,1.6-0.2
				c1,0,1.8,0.2,2.5,0.5c0.7,0.3,1.4,0.8,1.9,1.4c0.5,0.6,0.9,1.3,1.1,2.1c0.3,0.8,0.4,1.7,0.4,2.7v11.1h-4.7V65.1
				c0-1-0.2-1.7-0.7-2.3s-1.1-0.8-2-0.8c-0.7,0-1.3,0.1-1.9,0.4s-1.1,0.7-1.6,1.2v12.6h-4.7V58.7h2.9c0.6,0,1,0.3,1.2,0.8
				L415.9,60.8z"/>
		</g>
		<g class="st1">
			<path class="st2" d="M444.3,62.6c-0.1,0.2-0.3,0.3-0.4,0.4c-0.1,0.1-0.3,0.1-0.6,0.1c-0.2,0-0.4-0.1-0.7-0.2
				c-0.2-0.1-0.5-0.3-0.7-0.4c-0.3-0.2-0.6-0.3-1-0.4c-0.4-0.1-0.8-0.2-1.4-0.2c-0.7,0-1.3,0.1-1.8,0.4c-0.5,0.3-0.9,0.6-1.3,1.1
				c-0.3,0.5-0.6,1.1-0.8,1.7c-0.2,0.7-0.2,1.4-0.2,2.3c0,1.8,0.4,3.2,1.1,4.1s1.7,1.4,2.9,1.4c0.4,0,0.8,0,1.1-0.1
				c0.3-0.1,0.6-0.2,0.8-0.3s0.4-0.2,0.6-0.4c0.2-0.1,0.3-0.3,0.5-0.4s0.3-0.2,0.5-0.3c0.2-0.1,0.3-0.1,0.5-0.1
				c0.4,0,0.6,0.1,0.8,0.4l1.3,1.7c-0.5,0.6-1,1.1-1.6,1.4s-1.2,0.7-1.8,0.9c-0.6,0.2-1.2,0.4-1.8,0.5c-0.6,0.1-1.2,0.1-1.9,0.1
				c-1.1,0-2.1-0.2-3.1-0.6c-1-0.4-1.8-1-2.5-1.8c-0.7-0.8-1.3-1.7-1.7-2.8s-0.6-2.4-0.6-3.8c0-1.3,0.2-2.5,0.6-3.6
				c0.4-1.1,0.9-2.1,1.6-2.9s1.6-1.4,2.7-1.9c1.1-0.5,2.3-0.7,3.7-0.7c1.3,0,2.5,0.2,3.5,0.6c1,0.4,1.9,1.1,2.7,1.9L444.3,62.6z"/>
		</g>
		<g class="st1">
			<path class="st2" d="M453,68.2c0.1,1.6,0.6,2.8,1.4,3.6c0.8,0.8,1.8,1.1,3.1,1.1c0.6,0,1.2-0.1,1.7-0.2c0.5-0.2,0.9-0.3,1.2-0.5
				c0.4-0.2,0.7-0.4,1-0.5c0.3-0.2,0.6-0.2,0.9-0.2c0.4,0,0.6,0.1,0.8,0.4l1.4,1.7c-0.5,0.6-1,1.1-1.6,1.4s-1.2,0.7-1.9,0.9
				c-0.6,0.2-1.3,0.4-2,0.5s-1.3,0.1-1.9,0.1c-1.2,0-2.4-0.2-3.4-0.6s-2-1-2.8-1.8c-0.8-0.8-1.4-1.8-1.9-2.9
				c-0.5-1.2-0.7-2.5-0.7-4.1c0-1.2,0.2-2.3,0.6-3.4c0.4-1.1,1-2,1.7-2.8c0.7-0.8,1.6-1.4,2.7-1.9s2.2-0.7,3.6-0.7
				c1.1,0,2.2,0.2,3.1,0.5c0.9,0.4,1.8,0.9,2.4,1.6s1.2,1.5,1.6,2.5c0.4,1,0.6,2.1,0.6,3.4c0,0.4,0,0.6-0.1,0.9
				c0,0.2-0.1,0.4-0.2,0.5c-0.1,0.1-0.2,0.2-0.3,0.3c-0.1,0.1-0.3,0.1-0.5,0.1H453z M460.4,65.4c0-0.5-0.1-1-0.2-1.4
				c-0.1-0.4-0.3-0.8-0.6-1.2c-0.3-0.3-0.6-0.6-1.1-0.8s-0.9-0.3-1.5-0.3c-1.1,0-2,0.3-2.6,1s-1,1.5-1.2,2.7H460.4z"/>
			<path class="st2" d="M473.9,50.9v25.3h-4.7V50.9H473.9z"/>
			<path class="st2" d="M479.1,61.2c1-0.9,2.2-1.6,3.4-2.1c1.2-0.5,2.6-0.7,4-0.7c1,0,2,0.2,2.8,0.5c0.8,0.3,1.5,0.8,2.1,1.4
				s1,1.3,1.3,2.2c0.3,0.8,0.5,1.8,0.5,2.8v11h-2.1c-0.4,0-0.8-0.1-1-0.2c-0.2-0.1-0.4-0.4-0.6-0.8l-0.4-1.1c-0.4,0.4-0.9,0.7-1.3,1
				c-0.4,0.3-0.8,0.5-1.3,0.7s-0.9,0.3-1.4,0.5c-0.5,0.1-1.1,0.2-1.7,0.2c-0.8,0-1.5-0.1-2.1-0.3s-1.2-0.5-1.6-0.9s-0.8-0.9-1.1-1.5
				c-0.2-0.6-0.4-1.3-0.4-2.1c0-0.6,0.2-1.3,0.5-1.9c0.3-0.6,0.9-1.2,1.7-1.8c0.8-0.5,1.9-1,3.2-1.3c1.3-0.3,3-0.5,5-0.6v-0.9
				c0-1.1-0.2-1.9-0.7-2.4s-1.1-0.8-2-0.8c-0.6,0-1.2,0.1-1.6,0.2c-0.4,0.2-0.8,0.3-1.1,0.5s-0.6,0.3-0.9,0.5
				c-0.3,0.2-0.6,0.2-1,0.2c-0.3,0-0.6-0.1-0.8-0.2c-0.2-0.2-0.4-0.4-0.6-0.6L479.1,61.2z M488.7,68.9c-1.1,0.1-2.1,0.2-2.9,0.3
				c-0.8,0.1-1.4,0.3-1.8,0.6c-0.4,0.2-0.8,0.5-1,0.8c-0.2,0.3-0.3,0.6-0.3,0.9c0,0.7,0.2,1.2,0.6,1.4c0.4,0.3,0.9,0.4,1.6,0.4
				c0.8,0,1.5-0.1,2-0.4c0.6-0.3,1.1-0.7,1.7-1.3V68.9z M492.4,51.3l-4.3,4.5c-0.2,0.2-0.5,0.4-0.7,0.5c-0.2,0.1-0.5,0.1-0.9,0.1
				h-2.8l2.4-4.1c0.2-0.3,0.4-0.6,0.6-0.7c0.2-0.2,0.6-0.2,1.1-0.2H492.4z"/>
		</g>
		<g class="st1">
			<path class="st2" d="M509.6,51.6l-3.9,4.8h-4.4l-3.9-4.8h3.2c0.2,0,0.4,0,0.5,0.1s0.3,0.1,0.4,0.2l1.6,1.7
				c0.1,0.1,0.3,0.3,0.4,0.5c0.1-0.1,0.1-0.2,0.2-0.2c0.1-0.1,0.1-0.1,0.2-0.2l1.6-1.7c0.1-0.1,0.2-0.1,0.4-0.2
				c0.2-0.1,0.3-0.1,0.5-0.1H509.6z M502.6,61.6c0.6-1,1.2-1.8,1.9-2.4c0.7-0.6,1.6-0.9,2.5-0.9c0.8,0,1.4,0.2,1.9,0.6l-0.3,3.5
				c-0.1,0.2-0.1,0.4-0.3,0.5S508.2,63,508,63c-0.2,0-0.4,0-0.8-0.1s-0.7-0.1-1-0.1c-0.4,0-0.8,0.1-1.1,0.2
				c-0.3,0.1-0.6,0.3-0.9,0.5s-0.5,0.5-0.7,0.8c-0.2,0.3-0.4,0.7-0.6,1.1v10.7h-4.7V58.7h2.8c0.5,0,0.8,0.1,1,0.3
				c0.2,0.2,0.3,0.5,0.4,0.9L502.6,61.6z"/>
		</g>
		<g class="st1">
			<path class="st2" d="M206.7,86.1c0,0.2,0,0.5-0.1,0.7c-0.1,0.2-0.2,0.5-0.3,0.7l-10.7,15.2h10.9v3.5h-16.6v-1.8
				c0-0.2,0-0.4,0.1-0.6c0.1-0.2,0.2-0.4,0.3-0.6L200.9,88h-10.4v-3.5h16.2V86.1z"/>
		</g>
		<g class="st1">
			<path class="st2" d="M214.7,93.3c0.5-0.9,1.1-1.6,1.7-2.1c0.6-0.5,1.4-0.8,2.2-0.8c0.7,0,1.3,0.2,1.7,0.5l-0.3,3.1
				c-0.1,0.2-0.1,0.3-0.2,0.4c-0.1,0.1-0.2,0.1-0.4,0.1c-0.2,0-0.4,0-0.7-0.1c-0.3,0-0.6-0.1-0.8-0.1c-0.4,0-0.7,0.1-1,0.2
				c-0.3,0.1-0.6,0.3-0.8,0.5c-0.2,0.2-0.4,0.4-0.6,0.7c-0.2,0.3-0.4,0.6-0.5,1v9.5h-4.1V90.8h2.4c0.4,0,0.7,0.1,0.9,0.2
				c0.2,0.2,0.3,0.4,0.3,0.8L214.7,93.3z"/>
			<path class="st2" d="M228.1,92.6c0.3-0.3,0.6-0.6,1-0.8c0.3-0.2,0.7-0.5,1.1-0.6c0.4-0.2,0.8-0.3,1.2-0.4
				c0.4-0.1,0.9-0.2,1.4-0.2c0.8,0,1.6,0.1,2.2,0.4c0.6,0.3,1.2,0.7,1.6,1.2c0.4,0.5,0.8,1.1,1,1.9c0.2,0.7,0.3,1.5,0.3,2.4v9.8
				h-4.1v-9.8c0-0.9-0.2-1.5-0.6-2c-0.4-0.5-1-0.7-1.8-0.7c-0.6,0-1.1,0.1-1.6,0.4c-0.5,0.2-1,0.6-1.5,1v11.1h-4.1V90.8h2.5
				c0.5,0,0.9,0.2,1,0.7L228.1,92.6z"/>
		</g>
		<g class="st1">
			<path class="st2" d="M250.3,90.5c1.2,0,2.2,0.2,3.2,0.6c0.9,0.4,1.8,0.9,2.4,1.6s1.2,1.5,1.6,2.5c0.4,1,0.6,2.1,0.6,3.3
				c0,1.2-0.2,2.3-0.6,3.3c-0.4,1-0.9,1.8-1.6,2.5c-0.7,0.7-1.5,1.2-2.4,1.6c-1,0.4-2,0.6-3.2,0.6c-1.2,0-2.2-0.2-3.2-0.6
				c-1-0.4-1.8-0.9-2.5-1.6c-0.7-0.7-1.2-1.5-1.6-2.5c-0.4-1-0.6-2.1-0.6-3.3c0-1.2,0.2-2.3,0.6-3.3c0.4-1,0.9-1.8,1.6-2.5
				s1.5-1.2,2.5-1.6C248.1,90.7,249.2,90.5,250.3,90.5z M250.3,103.4c1.2,0,2.1-0.4,2.6-1.2c0.6-0.8,0.9-2,0.9-3.6
				c0-1.6-0.3-2.8-0.9-3.6s-1.4-1.2-2.6-1.2c-1.2,0-2.1,0.4-2.7,1.2c-0.6,0.8-0.9,2-0.9,3.6c0,1.6,0.3,2.8,0.9,3.6
				C248.2,103,249.1,103.4,250.3,103.4z"/>
		</g>
		<g class="st1">
			<path class="st2" d="M276.5,90.8l-6.1,15.5h-3.8l-6.1-15.5h3.4c0.3,0,0.5,0.1,0.8,0.2s0.3,0.3,0.4,0.5l2.6,7.6
				c0.2,0.5,0.3,1,0.4,1.5c0.1,0.5,0.2,1,0.3,1.5c0.1-0.5,0.2-1,0.4-1.5c0.1-0.5,0.3-1,0.5-1.5l2.7-7.6c0.1-0.2,0.2-0.4,0.4-0.5
				s0.4-0.2,0.7-0.2H276.5z"/>
		</g>
		<g class="st1">
			<path class="st2" d="M289.6,94c-0.1,0.2-0.2,0.3-0.3,0.4c-0.1,0.1-0.3,0.1-0.5,0.1s-0.4,0-0.6-0.2c-0.2-0.1-0.4-0.2-0.7-0.3
				c-0.3-0.1-0.6-0.2-0.9-0.3c-0.3-0.1-0.7-0.2-1.2-0.2c-0.7,0-1.2,0.1-1.6,0.4c-0.4,0.3-0.6,0.6-0.6,1.1c0,0.3,0.1,0.6,0.3,0.8
				s0.5,0.4,0.8,0.5c0.3,0.2,0.7,0.3,1.2,0.4s0.9,0.3,1.4,0.4s0.9,0.3,1.4,0.6c0.4,0.2,0.8,0.5,1.2,0.8c0.3,0.3,0.6,0.7,0.8,1.1
				s0.3,1,0.3,1.6c0,0.8-0.1,1.4-0.4,2.1c-0.3,0.6-0.7,1.2-1.2,1.6c-0.5,0.5-1.2,0.8-2,1.1c-0.8,0.3-1.7,0.4-2.7,0.4
				c-0.5,0-1.1,0-1.6-0.1c-0.5-0.1-1-0.2-1.5-0.4c-0.5-0.2-0.9-0.4-1.3-0.6c-0.4-0.2-0.8-0.5-1.1-0.8l1-1.5c0.1-0.2,0.2-0.3,0.4-0.4
				s0.4-0.2,0.6-0.2c0.2,0,0.5,0.1,0.7,0.2s0.4,0.3,0.7,0.4c0.3,0.1,0.6,0.3,0.9,0.4c0.4,0.1,0.8,0.2,1.3,0.2c0.4,0,0.7,0,1-0.1
				c0.3-0.1,0.5-0.2,0.7-0.4c0.2-0.2,0.3-0.3,0.4-0.5c0.1-0.2,0.1-0.4,0.1-0.6c0-0.3-0.1-0.6-0.3-0.8s-0.5-0.4-0.8-0.6
				s-0.7-0.3-1.2-0.4s-0.9-0.3-1.4-0.4c-0.5-0.2-0.9-0.3-1.4-0.6c-0.4-0.2-0.8-0.5-1.2-0.8c-0.3-0.3-0.6-0.7-0.8-1.2
				s-0.3-1.1-0.3-1.8c0-0.6,0.1-1.2,0.4-1.8s0.6-1.1,1.1-1.5c0.5-0.4,1.1-0.8,1.9-1.1c0.7-0.3,1.6-0.4,2.6-0.4c1.1,0,2.1,0.2,3,0.5
				s1.6,0.8,2.2,1.4L289.6,94z"/>
			<path class="st2" d="M299.5,83.9v12.7h0.7c0.3,0,0.5,0,0.6-0.1c0.2-0.1,0.3-0.2,0.5-0.4l3.4-4.6c0.2-0.2,0.4-0.4,0.6-0.5
				s0.5-0.2,0.8-0.2h3.8l-4.4,5.6c-0.3,0.5-0.8,0.8-1.2,1.1c0.2,0.2,0.4,0.3,0.6,0.6c0.2,0.2,0.3,0.4,0.5,0.7l4.8,7.5h-3.7
				c-0.3,0-0.6-0.1-0.8-0.2c-0.2-0.1-0.4-0.3-0.6-0.6l-3.5-5.7c-0.1-0.2-0.3-0.4-0.4-0.5c-0.2-0.1-0.4-0.1-0.7-0.1h-0.9v7h-4.1V83.9
				H299.5z"/>
		</g>
		<g class="st1">
			<path class="st2" d="M328.2,90.8l-8.3,19.6c-0.1,0.3-0.3,0.5-0.5,0.6c-0.2,0.1-0.5,0.2-0.9,0.2h-3.1l2.9-6.2l-6.2-14.2h3.6
				c0.3,0,0.6,0.1,0.8,0.2c0.2,0.2,0.3,0.3,0.4,0.5l2.9,7.4c0.1,0.3,0.2,0.6,0.3,0.9s0.2,0.6,0.2,0.9c0.2-0.6,0.4-1.2,0.6-1.8
				l2.7-7.4c0.1-0.2,0.2-0.4,0.4-0.5s0.4-0.2,0.7-0.2H328.2z M326,84.2l-3.8,3.9c-0.2,0.2-0.4,0.4-0.6,0.4c-0.2,0.1-0.4,0.1-0.8,0.1
				h-2.5l2.1-3.7c0.1-0.3,0.3-0.5,0.5-0.6s0.5-0.2,1-0.2H326z"/>
		</g>
		<g class="st1">
			<path class="st2" d="M360.5,106.2h-4.1c-0.2,0-0.4,0-0.6,0c-0.2,0-0.3-0.1-0.5-0.1c-0.1-0.1-0.3-0.1-0.4-0.2
				c-0.1-0.1-0.3-0.2-0.4-0.4l-1.2-1.3c-1,0.7-2,1.3-3.2,1.7c-1.2,0.4-2.4,0.6-3.7,0.6c-0.9,0-1.7-0.1-2.5-0.4
				c-0.8-0.3-1.6-0.7-2.2-1.3c-0.6-0.5-1.2-1.2-1.5-2s-0.6-1.6-0.6-2.6c0-0.7,0.1-1.3,0.3-1.9c0.2-0.6,0.5-1.2,0.9-1.7
				s0.8-1,1.4-1.4c0.5-0.4,1.1-0.8,1.7-1.1c-0.5-0.7-0.9-1.5-1.1-2.2c-0.2-0.7-0.3-1.4-0.3-2.1c0-0.8,0.1-1.5,0.4-2.2
				c0.3-0.7,0.7-1.3,1.2-1.8c0.5-0.5,1.2-0.9,2-1.2c0.8-0.3,1.7-0.5,2.6-0.5c0.9,0,1.7,0.1,2.5,0.4c0.7,0.3,1.3,0.6,1.8,1.1
				s0.9,1,1.2,1.6s0.5,1.2,0.5,1.8l-2.6,0.5c-0.5,0.1-0.8-0.1-1.1-0.6c-0.2-0.5-0.5-0.9-0.8-1.3c-0.4-0.3-0.8-0.5-1.4-0.5
				c-0.4,0-0.7,0.1-1,0.2c-0.3,0.1-0.6,0.3-0.8,0.5c-0.2,0.2-0.4,0.5-0.5,0.8c-0.1,0.3-0.2,0.6-0.2,1c0,0.3,0,0.5,0.1,0.8
				s0.1,0.5,0.3,0.8c0.1,0.3,0.3,0.5,0.5,0.8c0.2,0.3,0.5,0.6,0.8,0.9l5.6,5.8c0.3-0.6,0.6-1.3,0.7-1.9c0.2-0.7,0.3-1.4,0.4-2.1
				c0-0.3,0.1-0.5,0.3-0.6c0.1-0.2,0.3-0.2,0.6-0.2h2.6c0,1.4-0.2,2.7-0.6,3.9c-0.4,1.2-0.9,2.4-1.6,3.4L360.5,106.2z M345.8,96.3
				c-0.7,0.5-1.2,1.1-1.5,1.7s-0.5,1.2-0.5,1.9c0,0.5,0.1,1,0.3,1.4s0.4,0.8,0.7,1.1c0.3,0.3,0.7,0.5,1.1,0.7
				c0.4,0.2,0.8,0.2,1.3,0.2c0.8,0,1.5-0.1,2.2-0.3c0.7-0.2,1.3-0.5,1.8-1L345.8,96.3z"/>
		</g>
		<g class="st1">
			<path class="st2" d="M389.3,86.1c0,0.2,0,0.5-0.1,0.7c-0.1,0.2-0.2,0.5-0.3,0.7l-10.7,15.2H389v3.5h-16.7v-1.8
				c0-0.2,0-0.4,0.1-0.6c0.1-0.2,0.2-0.4,0.3-0.6L383.5,88h-10.4v-3.5h16.2V86.1z"/>
		</g>
		<g class="st1">
			<path class="st2" d="M397.4,93.3c0.5-0.9,1.1-1.6,1.7-2.1c0.6-0.5,1.4-0.8,2.2-0.8c0.7,0,1.3,0.2,1.7,0.5l-0.3,3.1
				c0,0.2-0.1,0.3-0.2,0.4c-0.1,0.1-0.2,0.1-0.4,0.1c-0.2,0-0.4,0-0.7-0.1c-0.3,0-0.6-0.1-0.8-0.1c-0.4,0-0.7,0.1-1,0.2
				c-0.3,0.1-0.6,0.3-0.8,0.5c-0.2,0.2-0.4,0.4-0.6,0.7c-0.2,0.3-0.4,0.6-0.5,1v9.5h-4.1V90.8h2.4c0.4,0,0.7,0.1,0.9,0.2
				c0.2,0.2,0.3,0.4,0.3,0.8L397.4,93.3z"/>
			<path class="st2" d="M410.7,92.6c0.3-0.3,0.6-0.6,1-0.8c0.3-0.2,0.7-0.5,1.1-0.6c0.4-0.2,0.8-0.3,1.2-0.4
				c0.4-0.1,0.9-0.2,1.4-0.2c0.8,0,1.6,0.1,2.2,0.4c0.6,0.3,1.2,0.7,1.6,1.2c0.4,0.5,0.8,1.1,1,1.9c0.2,0.7,0.3,1.5,0.3,2.4v9.8
				h-4.1v-9.8c0-0.9-0.2-1.5-0.6-2c-0.4-0.5-1-0.7-1.8-0.7c-0.6,0-1.1,0.1-1.6,0.4s-1,0.6-1.5,1v11.1h-4.1V90.8h2.5
				c0.5,0,0.9,0.2,1,0.7L410.7,92.6z"/>
		</g>
		<g class="st1">
			<path class="st2" d="M433,90.5c1.2,0,2.2,0.2,3.2,0.6c0.9,0.4,1.8,0.9,2.4,1.6c0.7,0.7,1.2,1.5,1.6,2.5c0.4,1,0.6,2.1,0.6,3.3
				c0,1.2-0.2,2.3-0.6,3.3c-0.4,1-0.9,1.8-1.6,2.5c-0.7,0.7-1.5,1.2-2.4,1.6c-1,0.4-2,0.6-3.2,0.6c-1.2,0-2.2-0.2-3.2-0.6
				c-1-0.4-1.8-0.9-2.5-1.6c-0.7-0.7-1.2-1.5-1.6-2.5c-0.4-1-0.6-2.1-0.6-3.3c0-1.2,0.2-2.3,0.6-3.3c0.4-1,0.9-1.8,1.6-2.5
				c0.7-0.7,1.5-1.2,2.5-1.6C430.8,90.7,431.8,90.5,433,90.5z M433,103.4c1.2,0,2.1-0.4,2.6-1.2c0.6-0.8,0.9-2,0.9-3.6
				c0-1.6-0.3-2.8-0.9-3.6c-0.6-0.8-1.4-1.2-2.6-1.2c-1.2,0-2.1,0.4-2.7,1.2c-0.6,0.8-0.9,2-0.9,3.6c0,1.6,0.3,2.8,0.9,3.6
				C430.9,103,431.8,103.4,433,103.4z"/>
		</g>
		<g class="st1">
			<path class="st2" d="M459.2,90.8l-6.1,15.5h-3.8l-6.1-15.5h3.4c0.3,0,0.5,0.1,0.8,0.2s0.3,0.3,0.4,0.5l2.6,7.6
				c0.2,0.5,0.3,1,0.5,1.5c0.1,0.5,0.2,1,0.3,1.5c0.1-0.5,0.2-1,0.4-1.5c0.1-0.5,0.3-1,0.5-1.5l2.7-7.6c0.1-0.2,0.2-0.4,0.4-0.5
				s0.4-0.2,0.7-0.2H459.2z"/>
		</g>
		<g class="st1">
			<path class="st2" d="M472.3,94c-0.1,0.2-0.2,0.3-0.3,0.4c-0.1,0.1-0.3,0.1-0.5,0.1s-0.4,0-0.6-0.2c-0.2-0.1-0.4-0.2-0.7-0.3
				c-0.3-0.1-0.6-0.2-0.9-0.3c-0.3-0.1-0.7-0.2-1.2-0.2c-0.7,0-1.2,0.1-1.6,0.4c-0.4,0.3-0.6,0.6-0.6,1.1c0,0.3,0.1,0.6,0.3,0.8
				s0.5,0.4,0.8,0.5c0.3,0.2,0.7,0.3,1.2,0.4s0.9,0.3,1.4,0.4s0.9,0.3,1.4,0.6c0.4,0.2,0.8,0.5,1.2,0.8c0.3,0.3,0.6,0.7,0.8,1.1
				s0.3,1,0.3,1.6c0,0.8-0.1,1.4-0.4,2.1c-0.3,0.6-0.7,1.2-1.2,1.6c-0.5,0.5-1.2,0.8-2,1.1c-0.8,0.3-1.7,0.4-2.7,0.4
				c-0.5,0-1.1,0-1.6-0.1c-0.5-0.1-1-0.2-1.5-0.4c-0.5-0.2-0.9-0.4-1.3-0.6c-0.4-0.2-0.8-0.5-1.1-0.8l1-1.5c0.1-0.2,0.2-0.3,0.4-0.4
				s0.4-0.2,0.6-0.2c0.2,0,0.5,0.1,0.7,0.2s0.4,0.3,0.7,0.4c0.3,0.1,0.6,0.3,0.9,0.4c0.4,0.1,0.8,0.2,1.3,0.2c0.4,0,0.7,0,1-0.1
				c0.3-0.1,0.5-0.2,0.7-0.4c0.2-0.2,0.3-0.3,0.4-0.5c0.1-0.2,0.1-0.4,0.1-0.6c0-0.3-0.1-0.6-0.3-0.8s-0.5-0.4-0.8-0.6
				s-0.7-0.3-1.2-0.4s-0.9-0.3-1.4-0.4c-0.5-0.2-0.9-0.3-1.4-0.6c-0.4-0.2-0.8-0.5-1.2-0.8c-0.3-0.3-0.6-0.7-0.8-1.2
				S462,96,462,95.3c0-0.6,0.1-1.2,0.4-1.8s0.6-1.1,1.1-1.5c0.5-0.4,1.1-0.8,1.9-1.1c0.7-0.3,1.6-0.4,2.6-0.4c1.1,0,2.1,0.2,3,0.5
				s1.6,0.8,2.2,1.4L472.3,94z"/>
			<path class="st2" d="M482.2,83.9v12.7h0.7c0.3,0,0.5,0,0.6-0.1c0.2-0.1,0.3-0.2,0.5-0.4l3.4-4.6c0.2-0.2,0.4-0.4,0.6-0.5
				s0.5-0.2,0.8-0.2h3.8l-4.4,5.6c-0.3,0.5-0.8,0.8-1.2,1.1c0.2,0.2,0.4,0.3,0.6,0.6c0.2,0.2,0.3,0.4,0.5,0.7l4.8,7.5H489
				c-0.3,0-0.6-0.1-0.8-0.2c-0.2-0.1-0.4-0.3-0.6-0.6l-3.5-5.7c-0.1-0.2-0.3-0.4-0.4-0.5c-0.2-0.1-0.4-0.1-0.7-0.1h-0.9v7H478V83.9
				H482.2z"/>
			<path class="st2" d="M496.2,92.9c0.9-0.8,1.9-1.4,3-1.8c1.1-0.4,2.3-0.6,3.6-0.6c0.9,0,1.7,0.1,2.5,0.4c0.7,0.3,1.3,0.7,1.8,1.3
				s0.9,1.2,1.2,1.9c0.3,0.7,0.4,1.6,0.4,2.4v9.7h-1.9c-0.4,0-0.7-0.1-0.9-0.2s-0.4-0.3-0.5-0.7l-0.3-1c-0.4,0.3-0.8,0.6-1.1,0.9
				c-0.4,0.3-0.7,0.5-1.1,0.7c-0.4,0.2-0.8,0.3-1.3,0.4c-0.4,0.1-0.9,0.1-1.5,0.1c-0.7,0-1.3-0.1-1.9-0.3c-0.6-0.2-1-0.4-1.4-0.8
				c-0.4-0.4-0.7-0.8-0.9-1.3c-0.2-0.5-0.3-1.1-0.3-1.8c0-0.6,0.1-1.1,0.4-1.7c0.3-0.6,0.8-1.1,1.5-1.6c0.7-0.5,1.6-0.8,2.8-1.2
				c1.2-0.3,2.6-0.5,4.4-0.5v-0.8c0-1-0.2-1.7-0.6-2.1c-0.4-0.5-1-0.7-1.8-0.7c-0.6,0-1,0.1-1.4,0.2c-0.4,0.1-0.7,0.3-1,0.4
				c-0.3,0.2-0.6,0.3-0.8,0.4c-0.2,0.1-0.5,0.2-0.9,0.2c-0.3,0-0.5-0.1-0.7-0.2s-0.4-0.3-0.5-0.5L496.2,92.9z M504.6,99.8
				c-1,0-1.8,0.1-2.5,0.3s-1.2,0.3-1.6,0.5c-0.4,0.2-0.7,0.4-0.8,0.7s-0.2,0.5-0.2,0.8c0,0.6,0.2,1,0.5,1.3s0.8,0.4,1.4,0.4
				c0.7,0,1.3-0.1,1.8-0.4c0.5-0.2,1-0.6,1.5-1.1V99.8z M507.9,84.2l-3.8,3.9c-0.2,0.2-0.4,0.4-0.6,0.4s-0.4,0.1-0.8,0.1h-2.5
				l2.1-3.7c0.2-0.3,0.3-0.5,0.5-0.6c0.2-0.1,0.5-0.2,1-0.2H507.9z"/>
		</g>
		<rect x="171.6" class="st3" width="7.4" height="161.9"/>
	</g>
</g>
</svg>
